<mxfile host="app.diagrams.net" modified="2024-04-09T13:12:57.227Z" agent="Mozilla/5.0 (Windows NT 10.0; Win64; x64) AppleWebKit/537.36 (KHTML, like Gecko) Chrome/123.0.0.0 Safari/537.36" version="24.0.1" etag="exfIkJhWRfPem4z4tDpq" type="github">
  <diagram name="第 1 页" id="hx-XzWPBB8MyBmod0_qX">
    <mxGraphModel>
      <root>
        <mxCell id="0" />
        <mxCell id="1" parent="0" />
      </root>
    </mxGraphModel>
  </diagram>
</mxfile>
